<svg width="1985" height="270" viewBox="0 0 1985 270" fill="none" xmlns="http://www.w3.org/2000/svg">
<path d="M1740.19 212.377H1767.31C1767.81 212.376 1768.3 212.256 1768.74 212.027C1769.18 211.798 1769.55 211.468 1769.83 211.065C1770.11 210.662 1770.29 210.198 1770.35 209.713C1770.4 209.228 1770.34 208.736 1770.16 208.28L1711.25 59.462C1711.08 59.0206 1710.79 58.6268 1710.43 58.3127C1710.07 57.9986 1709.64 57.7731 1709.17 57.6545C1708.92 57.6087 1708.66 57.6087 1708.4 57.6545H1681.25L1681.13 57.6571L1677.57 57.6575C1676.95 57.6593 1676.35 57.8443 1675.84 58.1883C1675.33 58.5323 1674.94 59.0193 1674.72 59.5855L1615.81 208.283C1615.63 208.739 1615.57 209.23 1615.63 209.716C1615.69 210.201 1615.86 210.665 1616.14 211.068C1616.42 211.471 1616.8 211.801 1617.24 212.03C1617.68 212.259 1618.17 212.379 1618.66 212.38H1645.79C1646.4 212.381 1647 212.2 1647.51 211.862C1648.02 211.523 1648.41 211.043 1648.64 210.482L1692.99 98.5644L1737.31 210.479C1737.54 211.045 1737.93 211.529 1738.45 211.867C1738.96 212.206 1739.57 212.384 1740.19 212.377Z" fill="#595959"/>
<path d="M1479.78 84.3672H1435.26C1433.57 84.3672 1432.19 83.0367 1432.19 81.3953V60.592C1432.19 58.9507 1433.57 57.6201 1435.26 57.6201H1558.09C1559.78 57.6201 1561.16 58.9507 1561.16 60.592V81.3953C1561.16 83.0367 1559.78 84.3672 1558.09 84.3672H1513.56V206.542C1513.56 207.331 1513.24 208.086 1512.66 208.644C1512.08 209.201 1511.3 209.514 1510.49 209.514H1482.85C1482.04 209.514 1481.26 209.201 1480.68 208.644C1480.11 208.086 1479.78 207.331 1479.78 206.542V84.3672Z" fill="#595959"/>
<path d="M1269.07 121.452V84.8986H1347.37C1348.17 84.8986 1348.94 84.5793 1349.51 84.0109C1350.08 83.4425 1350.39 82.6715 1350.39 81.8677V60.6511C1350.39 59.8472 1350.08 59.0763 1349.51 58.5079C1348.94 57.9395 1348.17 57.6201 1347.37 57.6201H1238.79C1237.98 57.6201 1237.21 57.9395 1236.64 58.5079C1236.08 59.0763 1235.76 59.8472 1235.76 60.6511V209.349C1235.76 210.153 1236.08 210.924 1236.64 211.492C1237.21 212.061 1237.98 212.38 1238.79 212.38H1347.37C1348.17 212.38 1348.94 212.061 1349.51 211.492C1350.08 210.924 1350.39 210.153 1350.39 209.349V188.133C1350.39 187.329 1350.08 186.558 1349.51 185.989C1348.94 185.421 1348.17 185.102 1347.37 185.102H1269.07V148.73H1338.73C1339.54 148.73 1340.31 148.411 1340.88 147.843C1341.44 147.274 1341.76 146.503 1341.76 145.699V124.483C1341.76 123.679 1341.44 122.908 1340.88 122.34C1340.31 121.771 1339.54 121.452 1338.73 121.452H1269.07Z" fill="#595959"/>
<path d="M1055.56 57.6201H1028.05C1026.37 57.6201 1025 58.9658 1025 60.6257V209.372C1025 211.032 1026.37 212.377 1028.05 212.377H1055.56C1057.25 212.377 1058.61 211.032 1058.61 209.372L1058.61 173.607L1081.19 146.793L1121.14 210.935C1121.41 211.374 1121.79 211.737 1122.25 211.989C1122.7 212.242 1123.22 212.376 1123.74 212.378H1150.78C1151.33 212.4 1151.88 212.275 1152.36 212.017C1152.85 211.76 1153.25 211.378 1153.53 210.913C1153.81 210.449 1153.96 209.918 1153.96 209.377C1153.96 208.836 1153.82 208.304 1153.53 207.839L1101.85 122.263L1152.01 62.7015C1152.37 62.2598 1152.6 61.7255 1152.67 61.1607C1152.74 60.5958 1152.64 60.0237 1152.39 59.5106C1152.14 58.9976 1151.75 58.5647 1151.26 58.2623C1150.77 57.9599 1150.2 57.8005 1149.62 57.8024H1123.95C1123.5 57.8017 1123.06 57.8983 1122.65 58.0853C1122.25 58.2723 1121.89 58.5452 1121.6 58.8844L1058.61 133.685V60.6257C1058.61 58.9658 1057.25 57.6201 1055.56 57.6201Z" fill="#595959"/>
<path d="M880.725 57.6214C881.237 57.6084 881.748 57.6928 882.23 57.8651C882.781 58.0486 883.284 58.3489 883.703 58.7447C884.122 59.1405 884.447 59.622 884.656 60.1551L942.9 206.866C943.152 207.476 943.247 208.138 943.177 208.793C943.107 209.448 942.873 210.075 942.497 210.621C942.12 211.166 941.613 211.611 941.019 211.918C940.425 212.225 939.764 212.384 939.093 212.38H914.069C913.248 212.386 912.445 212.148 911.765 211.696C911.085 211.244 910.561 210.6 910.262 209.849L866.08 98.5428L821.682 210.479C821.455 211.04 821.061 211.52 820.552 211.859C820.043 212.197 819.442 212.378 818.827 212.377H791.531C791.031 212.381 790.537 212.264 790.093 212.038C789.649 211.811 789.269 211.482 788.984 211.078C788.7 210.674 788.52 210.207 788.461 209.72C788.402 209.232 788.465 208.738 788.645 208.28L847.688 59.5499C847.911 58.9836 848.302 58.4965 848.812 58.1524C849.321 57.8083 849.925 57.6232 850.543 57.6214H880.725Z" fill="#595959"/>
<path d="M733.989 60.592V81.3954C733.989 82.1836 733.666 82.9395 733.09 83.4968C732.514 84.0542 731.733 84.3673 730.918 84.3673H686.394V206.542C686.394 207.331 686.071 208.086 685.495 208.644C684.919 209.201 684.138 209.514 683.324 209.514H655.688C654.874 209.514 654.093 209.201 653.517 208.644C652.941 208.086 652.617 207.331 652.617 206.542V84.3673H608.093C607.279 84.3673 606.498 84.0542 605.922 83.4968C605.346 82.9395 605.022 82.1836 605.022 81.3954V60.592C605.022 59.8038 605.346 59.0479 605.922 58.4906C606.498 57.9332 607.279 57.6201 608.093 57.6201H730.918C731.733 57.6201 732.514 57.9332 733.09 58.4906C733.666 59.0479 733.989 59.8038 733.989 60.592Z" fill="#595959"/>
<path d="M533.372 165.599C533.372 178.006 528.333 189.905 519.363 198.678C510.393 207.451 498.228 212.38 485.542 212.38H407.495C406.676 212.38 405.89 212.062 405.31 211.495C404.731 210.928 404.405 210.16 404.405 209.358V186.179C404.405 185.377 404.731 184.609 405.31 184.042C405.89 183.475 406.676 183.157 407.495 183.157H481.155C485.9 183.157 490.45 181.313 493.805 178.032C497.16 174.75 499.045 170.3 499.045 165.659C499.045 163.363 498.582 161.089 497.682 158.968C496.783 156.846 495.465 154.919 493.803 153.297C492.141 151.675 490.169 150.388 487.999 149.512C485.828 148.636 483.503 148.188 481.155 148.191H447.662C436.19 148.191 425.187 143.734 417.075 135.799C408.963 127.865 404.405 117.104 404.405 105.883V99.9291C404.405 88.708 408.963 77.9466 417.075 70.0121C425.187 62.0777 436.19 57.6201 447.662 57.6201H519.746C520.566 57.6201 521.351 57.9385 521.931 58.5053C522.51 59.072 522.836 59.8407 522.836 60.6422V83.8819C522.836 84.6834 522.51 85.4521 521.931 86.0188C521.351 86.5856 520.566 86.904 519.746 86.904H454.15C450.053 86.904 446.124 88.4959 443.226 91.3297C440.329 94.1634 438.702 98.0068 438.702 102.014V103.737C438.702 107.744 440.329 111.588 443.226 114.421C446.124 117.255 450.053 118.847 454.15 118.847H485.542C491.822 118.843 498.041 120.05 503.844 122.397C509.646 124.745 514.919 128.188 519.361 132.53C523.803 136.871 527.327 142.027 529.731 147.701C532.135 153.375 533.372 159.457 533.372 165.599Z" fill="#595959"/>
<path fill-rule="evenodd" clip-rule="evenodd" d="M1963.08 129.193C1968.05 122.381 1970.97 114.388 1971.54 106.084C1972.11 97.7725 1970.3 89.4693 1966.31 82.0814C1962.31 74.6934 1956.29 68.5047 1948.89 64.191C1941.49 59.8772 1933.01 57.6042 1924.36 57.6202H1855.27C1854.45 57.6202 1853.66 57.9345 1853.08 58.4939C1852.5 59.0533 1852.17 59.8121 1852.17 60.6032V209.397C1852.17 210.188 1852.5 210.947 1853.08 211.506C1853.66 212.066 1854.45 212.38 1855.27 212.38H1938.7C1948.65 211.996 1958.22 208.589 1966.04 202.647C1973.86 196.706 1979.52 188.534 1982.23 179.301C1984.93 170.069 1984.54 160.249 1981.1 151.247C1977.66 142.25 1971.35 134.531 1963.08 129.193ZM1900.99 85.1311C1895.19 85.1887 1889.69 85.2431 1886.64 85.2431V121.905H1922.07C1926.94 122.213 1931.77 120.931 1935.79 118.265C1937.84 116.78 1939.57 114.916 1940.88 112.78C1942.18 110.644 1943.03 108.281 1943.37 105.826C1943.79 102.497 1943.25 99.1229 1941.8 96.0715C1940.36 93.0201 1938.08 90.4093 1935.2 88.5245C1931.39 86.1816 1926.95 84.9679 1922.44 85.0343C1919.93 84.9433 1910.07 85.041 1900.99 85.1311ZM1899.41 185.731C1909.99 185.842 1928.64 186.037 1934.08 185.175H1934.21C1938.78 184.518 1942.98 182.355 1946.08 179.054C1949.19 175.753 1951.01 171.517 1951.24 167.068C1951.21 164.518 1950.64 162.001 1949.57 159.668C1948.5 157.336 1946.95 155.237 1945.01 153.497C1943.07 151.758 1940.79 150.414 1938.3 149.547C1935.81 148.68 1933.16 148.308 1930.52 148.454C1925.49 148.553 1920.44 148.52 1915.38 148.487C1912.85 148.47 1910.32 148.454 1907.79 148.454H1886.11V185.682H1893.39C1894.7 185.682 1896.81 185.704 1899.41 185.731Z" fill="#595959"/>
<path fill-rule="evenodd" clip-rule="evenodd" d="M0.000978661 158.999C0.000978714 160.23 0.391112 161.434 1.12199 162.457L75.7959 267.037C77.0289 268.764 79.101 269.801 81.3195 269.801H119.367C120.658 269.801 121.921 269.449 123.001 268.788L293.553 164.46C295.431 163.311 296.564 161.352 296.564 159.251V110.749C296.564 108.648 295.431 106.689 293.553 105.54L123.001 1.21169C121.921 0.550711 120.658 0.19873 119.367 0.19873L81.3195 0.198732C79.101 0.198732 77.0289 1.23547 75.7958 2.9624L1.12199 107.542C0.39111 108.566 0.000976509 109.77 0.000976562 111.001L0.000978661 158.999ZM106.503 255.228H114.709C116 255.228 117.263 254.876 118.343 254.215L277.944 156.586C279.823 155.437 280.955 153.477 280.955 151.376V150.261C280.789 150.306 280.621 150.346 280.45 150.379L111.792 183.283C108.711 183.884 106.503 186.427 106.503 189.374L106.503 255.228ZM280.955 119.738V118.623C280.955 116.522 279.823 114.563 277.944 113.414L118.343 15.7848C117.263 15.1238 116 14.7718 114.709 14.7718H106.503V80.6256C106.503 83.5729 108.711 86.1159 111.792 86.7171L280.45 119.62C280.621 119.654 280.789 119.693 280.955 119.738ZM90.9168 14.7718H89.6729C87.4545 14.7718 85.3824 15.8086 84.1493 17.5355L16.7306 111.955C15.9997 112.978 15.6095 114.182 15.6095 115.413V120.606C15.9709 120.349 16.3638 120.124 16.7843 119.937L87.1205 88.6865C89.439 87.6564 90.9168 85.4681 90.9168 83.0649L90.9168 14.7718ZM148.916 109.768C148.439 109.029 147.654 108.508 146.751 108.332L101.877 99.5778C100.459 99.3011 98.9826 99.4661 97.6736 100.048L25.3325 132.189C22.8016 133.314 22.8016 136.686 25.3325 137.811L97.6736 169.952C98.9826 170.534 100.459 170.699 101.877 170.422L173.849 156.381C176.093 155.943 177.2 153.561 176.015 151.725L148.916 109.768Z" fill="#595959"/>
</svg>
