<svg width="1024" height="1024" viewBox="0 0 1024 1024" fill="none" xmlns="http://www.w3.org/2000/svg">
<path fill-rule="evenodd" clip-rule="evenodd" d="M162 568.878C162 571.8 162.921 574.657 164.646 577.086L340.905 825.285C343.815 829.383 348.706 831.844 353.942 831.844H443.75C446.796 831.844 449.776 831.008 452.327 829.44L854.893 581.839C859.327 579.112 862 574.463 862 569.476V454.367C862 449.381 859.327 444.731 854.893 442.004L452.327 194.404C449.776 192.835 446.796 192 443.749 192L353.942 192C348.706 192 343.815 194.46 340.905 198.559L164.646 446.757C162.921 449.187 162 452.043 162 454.966L162 568.878ZM413.384 797.258H432.755C435.802 797.258 438.782 796.422 441.333 794.854L818.051 563.151C822.485 560.424 825.158 555.774 825.158 550.788V548.142C824.767 548.249 824.369 548.342 823.965 548.422L425.869 626.511C418.596 627.937 413.384 633.973 413.384 640.967V797.258ZM825.158 475.702V473.056C825.158 468.069 822.485 463.42 818.052 460.693L441.333 228.99C438.782 227.421 435.802 226.586 432.755 226.586H413.384V382.876C413.384 389.871 418.596 395.906 425.869 397.333L823.965 475.422C824.369 475.501 824.767 475.595 825.158 475.702ZM376.596 226.586H373.66C368.423 226.586 363.532 229.047 360.622 233.145L201.488 457.229C199.763 459.659 198.842 462.515 198.842 465.437V477.762C199.695 477.151 200.622 476.617 201.615 476.174L367.635 402.007C373.108 399.562 376.596 394.369 376.596 388.665L376.596 226.586ZM513.497 452.039C512.369 450.284 510.518 449.05 508.386 448.632L402.466 427.855C399.118 427.198 395.634 427.59 392.544 428.97L221.792 505.251C215.818 507.92 215.818 515.924 221.792 518.593L392.544 594.873C395.634 596.254 399.118 596.645 402.466 595.989L572.348 562.665C577.643 561.627 580.258 555.973 577.459 551.616L513.497 452.039Z" fill="url(#paint0_linear_2101_359)"/>
<defs>
<linearGradient id="paint0_linear_2101_359" x1="778.371" y1="298.029" x2="174.629" y2="591.727" gradientUnits="userSpaceOnUse">
<stop stop-color="#9C81F8"/>
<stop offset="0.614461" stop-color="#FF76C8"/>
<stop offset="1" stop-color="#FFD176"/>
</linearGradient>
</defs>
</svg>
