<svg width="1985" height="272" viewBox="0 0 1985 272" fill="none" xmlns="http://www.w3.org/2000/svg">
<path d="M1740.19 211.234H1767.31C1767.81 211.233 1768.3 211.113 1768.74 210.884C1769.17 210.655 1769.55 210.325 1769.83 209.922C1770.11 209.519 1770.29 209.055 1770.35 208.57C1770.4 208.084 1770.34 207.593 1770.16 207.137L1711.25 58.319C1711.08 57.8776 1710.79 57.4837 1710.43 57.1696C1710.07 56.8555 1709.64 56.63 1709.17 56.5114C1708.92 56.4656 1708.66 56.4656 1708.4 56.5114H1681.25L1681.13 56.5141L1677.57 56.5144C1676.95 56.5162 1676.35 56.7012 1675.84 57.0452C1675.33 57.3893 1674.94 57.8762 1674.72 58.4424L1615.81 207.14C1615.63 207.596 1615.57 208.087 1615.63 208.573C1615.68 209.058 1615.86 209.522 1616.14 209.925C1616.42 210.328 1616.8 210.658 1617.24 210.887C1617.68 211.115 1618.17 211.236 1618.66 211.237H1645.79C1646.4 211.238 1647 211.057 1647.51 210.719C1648.02 210.38 1648.41 209.9 1648.64 209.339L1692.99 97.4214L1737.31 209.336C1737.53 209.902 1737.93 210.386 1738.45 210.724C1738.96 211.063 1739.57 211.241 1740.19 211.234Z" fill="#BD7EE9"/>
<path d="M1479.78 83.2242H1435.26C1433.56 83.2242 1432.19 81.8936 1432.19 80.2523V59.4489C1432.19 57.8076 1433.56 56.4771 1435.26 56.4771H1558.09C1559.78 56.4771 1561.16 57.8076 1561.16 59.4489V80.2523C1561.16 81.8936 1559.78 83.2242 1558.09 83.2242H1513.56V205.399C1513.56 206.188 1513.24 206.943 1512.66 207.501C1512.08 208.058 1511.3 208.371 1510.49 208.371H1482.85C1482.04 208.371 1481.26 208.058 1480.68 207.501C1480.11 206.943 1479.78 206.188 1479.78 205.399V83.2242Z" fill="#BD7EE9"/>
<path d="M1269.07 120.309V83.7556H1347.37C1348.17 83.7556 1348.94 83.4362 1349.51 82.8678C1350.07 82.2994 1350.39 81.5285 1350.39 80.7246V59.508C1350.39 58.7041 1350.07 57.9332 1349.51 57.3648C1348.94 56.7964 1348.17 56.4771 1347.37 56.4771H1238.79C1237.98 56.4771 1237.21 56.7964 1236.64 57.3648C1236.08 57.9332 1235.76 58.7041 1235.76 59.508V208.206C1235.76 209.01 1236.08 209.781 1236.64 210.349C1237.21 210.918 1237.98 211.237 1238.79 211.237H1347.37C1348.17 211.237 1348.94 210.918 1349.51 210.349C1350.07 209.781 1350.39 209.01 1350.39 208.206V186.99C1350.39 186.186 1350.07 185.415 1349.51 184.846C1348.94 184.278 1348.17 183.959 1347.37 183.959H1269.07V147.587H1338.73C1339.54 147.587 1340.31 147.268 1340.87 146.7C1341.44 146.131 1341.76 145.36 1341.76 144.556V123.34C1341.76 122.536 1341.44 121.765 1340.87 121.197C1340.31 120.628 1339.54 120.309 1338.73 120.309H1269.07Z" fill="#BD7EE9"/>
<path d="M1055.56 56.4771H1028.05C1026.36 56.4771 1025 57.8227 1025 59.4826V208.229C1025 209.889 1026.36 211.234 1028.05 211.234H1055.56C1057.24 211.234 1058.61 209.889 1058.61 208.229L1058.61 172.464L1081.19 145.65L1121.14 209.792C1121.41 210.231 1121.79 210.594 1122.25 210.846C1122.7 211.099 1123.22 211.233 1123.74 211.235H1150.78C1151.33 211.256 1151.88 211.132 1152.36 210.874C1152.85 210.616 1153.25 210.235 1153.53 209.77C1153.81 209.306 1153.96 208.775 1153.96 208.234C1153.96 207.692 1153.81 207.161 1153.53 206.696L1101.85 121.12L1152.01 61.5584C1152.37 61.1167 1152.6 60.5824 1152.67 60.0176C1152.73 59.4528 1152.64 58.8806 1152.39 58.3675C1152.14 57.8545 1151.75 57.4216 1151.26 57.1193C1150.77 56.8169 1150.2 56.6574 1149.62 56.6594H1123.95C1123.5 56.6586 1123.06 56.7552 1122.65 56.9422C1122.24 57.1292 1121.88 57.4021 1121.6 57.7414L1058.61 132.542V59.4826C1058.61 57.8227 1057.24 56.4771 1055.56 56.4771Z" fill="#BD7EE9"/>
<path d="M880.724 56.4784C881.236 56.4653 881.747 56.5497 882.229 56.722C882.78 56.9055 883.283 57.2058 883.702 57.6016C884.121 57.9974 884.446 58.479 884.655 59.0121L942.899 205.723C943.151 206.333 943.246 206.995 943.176 207.65C943.106 208.305 942.872 208.932 942.496 209.478C942.119 210.023 941.612 210.468 941.018 210.775C940.424 211.082 939.763 211.241 939.092 211.237H914.068C913.247 211.243 912.444 211.005 911.764 210.553C911.084 210.101 910.56 209.457 910.261 208.706L866.079 97.3997L821.681 209.336C821.454 209.897 821.06 210.377 820.551 210.716C820.042 211.054 819.441 211.235 818.826 211.234H791.531C791.03 211.238 790.536 211.121 790.092 210.895C789.648 210.668 789.268 210.339 788.983 209.935C788.699 209.531 788.519 209.064 788.46 208.577C788.401 208.089 788.464 207.595 788.644 207.136L847.687 58.4068C847.91 57.8405 848.301 57.3534 848.811 57.0093C849.32 56.6652 849.924 56.4802 850.542 56.4784H880.724Z" fill="#BD7EE9"/>
<path d="M733.988 59.449V80.2523C733.988 81.0405 733.665 81.7964 733.089 82.3538C732.513 82.9111 731.732 83.2242 730.917 83.2242H686.393V205.399C686.393 206.187 686.07 206.943 685.494 207.501C684.918 208.058 684.137 208.371 683.323 208.371H655.687C654.873 208.371 654.092 208.058 653.516 207.501C652.94 206.943 652.616 206.187 652.616 205.399V83.2242H608.092C607.278 83.2242 606.497 82.9111 605.921 82.3538C605.345 81.7964 605.021 81.0405 605.021 80.2523V59.449C605.021 58.6608 605.345 57.9048 605.921 57.3475C606.497 56.7902 607.278 56.4771 608.092 56.4771H730.917C731.732 56.4771 732.513 56.7902 733.089 57.3475C733.665 57.9048 733.988 58.6608 733.988 59.449Z" fill="#BD7EE9"/>
<path d="M533.371 164.456C533.371 176.863 528.332 188.762 519.362 197.535C510.392 206.308 498.227 211.237 485.541 211.237H407.494C406.675 211.237 405.889 210.919 405.309 210.352C404.73 209.785 404.404 209.017 404.404 208.215V185.036C404.404 184.234 404.73 183.466 405.309 182.899C405.889 182.332 406.675 182.014 407.494 182.014H481.154C485.899 182.014 490.449 180.17 493.804 176.889C497.159 173.607 499.044 169.157 499.044 164.516C499.044 162.22 498.581 159.946 497.681 157.824C496.782 155.703 495.464 153.776 493.802 152.154C492.14 150.531 490.168 149.245 487.998 148.369C485.827 147.493 483.502 147.044 481.154 147.048H447.661C436.189 147.048 425.186 142.591 417.074 134.656C408.962 126.722 404.404 115.96 404.404 104.739V98.786C404.404 87.565 408.962 76.8035 417.074 68.8691C425.186 60.9346 436.189 56.4771 447.661 56.4771H519.745C520.565 56.4771 521.35 56.7955 521.93 57.3622C522.509 57.9289 522.835 58.6976 522.835 59.4991V82.7388C522.835 83.5403 522.509 84.309 521.93 84.8757C521.35 85.4425 520.565 85.7609 519.745 85.7609H454.149C450.052 85.7609 446.123 87.3529 443.226 90.1866C440.328 93.0203 438.701 96.8637 438.701 100.871V102.594C438.701 106.601 440.328 110.445 443.226 113.278C446.123 116.112 450.052 117.704 454.149 117.704H485.541C491.821 117.7 498.04 118.907 503.843 121.254C509.645 123.602 514.918 127.045 519.36 131.387C523.802 135.728 527.326 140.883 529.73 146.558C532.134 152.232 533.371 158.313 533.371 164.456Z" fill="#BD7EE9"/>
<path fill-rule="evenodd" clip-rule="evenodd" d="M1963.08 128.05C1968.05 121.238 1970.97 113.245 1971.54 104.941C1972.11 96.6294 1970.3 88.3263 1966.31 80.9383C1962.31 73.5504 1956.29 67.3617 1948.89 63.0479C1941.49 58.7341 1933.01 56.4611 1924.36 56.4771H1855.27C1854.44 56.4771 1853.66 56.7914 1853.08 57.3508C1852.5 57.9103 1852.17 58.669 1852.17 59.4602V208.254C1852.17 209.045 1852.5 209.804 1853.08 210.363C1853.66 210.923 1854.44 211.237 1855.27 211.237H1938.7C1948.65 210.853 1958.22 207.446 1966.04 201.504C1973.86 195.563 1979.52 187.391 1982.23 178.158C1984.93 168.926 1984.54 159.106 1981.09 150.104C1977.66 141.107 1971.35 133.388 1963.08 128.05ZM1900.99 83.988C1895.19 84.0456 1889.69 84.1001 1886.64 84.1001V120.762H1922.07C1926.93 121.07 1931.77 119.788 1935.79 117.122C1937.84 115.637 1939.57 113.773 1940.88 111.637C1942.18 109.501 1943.03 107.138 1943.37 104.683C1943.79 101.354 1943.24 97.9798 1941.8 94.9284C1940.36 91.8771 1938.08 89.2663 1935.2 87.3814C1931.39 85.0385 1926.95 83.8248 1922.44 83.8913C1919.93 83.8003 1910.07 83.898 1900.99 83.988ZM1899.41 184.588C1909.99 184.699 1928.64 184.894 1934.08 184.032H1934.21C1938.78 183.375 1942.98 181.212 1946.08 177.911C1949.19 174.61 1951.01 170.374 1951.24 165.925C1951.21 163.375 1950.64 160.858 1949.57 158.525C1948.49 156.193 1946.94 154.094 1945.01 152.354C1943.07 150.615 1940.79 149.271 1938.3 148.404C1935.81 147.537 1933.16 147.165 1930.52 147.311C1925.48 147.41 1920.44 147.377 1915.38 147.344C1912.85 147.327 1910.32 147.311 1907.79 147.311H1886.11V184.539H1893.39C1894.7 184.539 1896.81 184.561 1899.41 184.588Z" fill="#BD7EE9"/>
<path fill-rule="evenodd" clip-rule="evenodd" d="M2.09407e-06 160.084C2.14779e-06 161.32 0.389395 162.528 1.11889 163.555L75.6511 268.508C76.8818 270.241 78.95 271.281 81.1642 271.281H119.14C120.428 271.281 121.688 270.928 122.767 270.265L292.995 165.565C294.87 164.412 296 162.446 296 160.337V111.663C296 109.554 294.87 107.588 292.995 106.435L122.767 1.73531C121.688 1.07198 120.428 0.71875 119.14 0.71875L81.1642 0.718752C78.95 0.718752 76.8818 1.75918 75.6511 3.49226L1.11889 108.445C0.389393 109.472 -5.37208e-08 110.68 0 111.916L2.09407e-06 160.084ZM106.3 256.656H114.491C115.779 256.656 117.039 256.303 118.118 255.64L277.416 157.663C279.291 156.509 280.421 154.543 280.421 152.435V151.316C280.256 151.361 280.087 151.401 279.917 151.434L111.579 184.455C108.504 185.058 106.3 187.61 106.3 190.568V256.656ZM280.421 120.684V119.565C280.421 117.457 279.291 115.491 277.416 114.337L118.118 16.3603C117.039 15.697 115.779 15.3437 114.491 15.3437H106.3V81.432C106.3 84.3899 108.504 86.9419 111.579 87.5452L279.917 120.566C280.087 120.599 280.256 120.639 280.421 120.684ZM90.7433 15.3437H89.5018C87.2876 15.3437 85.2194 16.3842 83.9886 18.1173L16.6978 112.873C15.9683 113.9 15.5789 115.108 15.5789 116.344V121.555C15.9396 121.297 16.3317 121.071 16.7514 120.884L86.9542 89.5216C89.2683 88.4878 90.7433 86.2918 90.7433 83.8801L90.7433 15.3437ZM148.633 110.678C148.156 109.936 147.373 109.414 146.472 109.237L101.683 100.452C100.267 100.174 98.7938 100.34 97.4873 100.923L25.2834 133.179C22.7574 134.308 22.7574 137.692 25.2834 138.821L97.4873 171.077C98.7938 171.66 100.267 171.826 101.683 171.548L173.519 157.457C175.757 157.018 176.863 154.627 175.68 152.785L148.633 110.678Z" fill="url(#paint0_linear_2101_439)"/>
<defs>
<linearGradient id="paint0_linear_2101_439" x1="260.637" y1="45.5538" x2="5.34024" y2="169.746" gradientUnits="userSpaceOnUse">
<stop stop-color="#9C81F8"/>
<stop offset="0.614461" stop-color="#FF76C8"/>
<stop offset="1" stop-color="#FFD176"/>
</linearGradient>
</defs>
</svg>
