<svg width="1000" height="1000" viewBox="0 0 1000 1000" fill="none" xmlns="http://www.w3.org/2000/svg">
<rect width="1000" height="1000" fill="url(#paint0_linear_1605_439)"/>
<path fill-rule="evenodd" clip-rule="evenodd" d="M250 540.199C250 542.286 250.658 544.326 251.89 546.062L377.789 723.346C379.868 726.274 383.361 728.031 387.102 728.031H451.25C453.426 728.031 455.555 727.435 457.376 726.314L744.924 549.457C748.091 547.509 750 544.188 750 540.626V458.405C750 454.844 748.091 451.522 744.924 449.575L457.376 272.717C455.555 271.597 453.426 271 451.25 271L387.102 271C383.361 271 379.868 272.757 377.789 275.685L251.89 452.97C250.658 454.705 250 456.745 250 458.833L250 540.199ZM429.56 703.327H443.397C445.573 703.327 447.702 702.73 449.523 701.61L718.608 536.108C721.775 534.16 723.684 530.839 723.684 527.277V525.387C723.405 525.463 723.121 525.53 722.832 525.587L438.478 581.365C433.283 582.384 429.56 586.695 429.56 591.691L429.56 703.327ZM723.684 473.644V471.754C723.684 468.192 721.775 464.871 718.608 462.923L449.523 297.422C447.702 296.301 445.573 295.704 443.397 295.704H429.56V407.34C429.56 412.336 433.283 416.647 438.478 417.666L722.832 473.444C723.121 473.501 723.405 473.568 723.684 473.644ZM403.283 295.704H401.185C397.445 295.704 393.952 297.462 391.873 300.389L278.206 460.45C276.974 462.185 276.316 464.225 276.316 466.312V475.115C276.925 474.679 277.587 474.298 278.296 473.981L396.882 421.005C400.791 419.259 403.283 415.549 403.283 411.475L403.283 295.704ZM501.069 456.742C500.264 455.489 498.941 454.607 497.418 454.308L421.761 439.468C419.37 438.999 416.881 439.278 414.674 440.264L292.709 494.751C288.441 496.657 288.441 502.374 292.709 504.28L414.674 558.767C416.881 559.753 419.37 560.032 421.761 559.563L543.106 535.761C546.888 535.019 548.755 530.981 546.756 527.868L501.069 456.742Z" fill="white"/>
<defs>
<linearGradient id="paint0_linear_1605_439" x1="880.53" y1="165.71" x2="-9.98944" y2="561.686" gradientUnits="userSpaceOnUse">
<stop stop-color="#9C81F8"/>
<stop offset="0.614461" stop-color="#FF76C8"/>
<stop offset="1" stop-color="#FFD176"/>
</linearGradient>
</defs>
</svg>
