<svg width="2000" height="2000" viewBox="0 0 2000 2000" fill="none" xmlns="http://www.w3.org/2000/svg">
<rect width="2000" height="2000" fill="#A481F8"/>
<path fill-rule="evenodd" clip-rule="evenodd" d="M500 1077.46C500 1081.63 501.316 1085.72 503.78 1089.19L755.578 1443.76C759.736 1449.61 766.723 1453.12 774.203 1453.12H902.499C906.851 1453.12 911.109 1451.93 914.753 1449.69L1489.85 1095.98C1496.18 1092.08 1500 1085.44 1500 1078.31V913.873C1500 906.75 1496.18 900.107 1489.85 896.212L914.753 542.497C911.109 540.256 906.851 539.062 902.499 539.062L774.203 539.063C766.723 539.063 759.736 542.577 755.578 548.432L503.78 903.002C501.316 906.472 500 910.553 500 914.728L500 1077.46ZM859.12 1403.72H886.793C891.145 1403.72 895.403 1402.52 899.047 1400.28L1437.22 1069.28C1443.55 1065.38 1447.37 1058.74 1447.37 1051.62V1047.84C1446.81 1047.99 1446.24 1048.12 1445.66 1048.24L876.956 1159.79C866.566 1161.83 859.12 1170.45 859.12 1180.44L859.12 1403.72ZM1447.37 944.351V940.571C1447.37 933.447 1443.55 926.805 1437.22 922.909L899.047 591.906C895.403 589.665 891.145 588.471 886.793 588.471H859.12V811.743C859.12 821.735 866.566 830.357 876.956 832.395L1445.66 943.951C1446.24 944.064 1446.81 944.198 1447.37 944.351ZM806.565 588.471H802.371C794.89 588.471 787.903 591.986 783.745 597.841L556.412 917.962C553.947 921.432 552.632 925.513 552.632 929.687V947.293C553.85 946.421 555.175 945.658 556.593 945.025L793.764 839.072C801.582 835.58 806.565 828.16 806.565 820.013L806.565 588.471ZM1002.14 910.547C1000.53 908.04 997.883 906.277 994.837 905.679L843.523 875.998C838.74 875.06 833.763 875.619 829.349 877.591L585.417 986.564C576.883 990.376 576.883 1001.81 585.417 1005.62L829.349 1114.6C833.763 1116.57 838.74 1117.13 843.523 1116.19L1086.21 1068.58C1093.78 1067.1 1097.51 1059.02 1093.51 1052.8L1002.14 910.547Z" fill="white"/>
</svg>
