<svg width="1024" height="1024" viewBox="0 0 1024 1024" fill="none" xmlns="http://www.w3.org/2000/svg">
<path fill-rule="evenodd" clip-rule="evenodd" d="M161 568.878C161 571.8 161.921 574.657 163.646 577.086L339.905 825.285C342.815 829.383 347.706 831.844 352.942 831.844H442.75C445.796 831.844 448.776 831.008 451.327 829.44L853.893 581.839C858.327 579.112 861 574.463 861 569.476V454.367C861 449.381 858.327 444.731 853.893 442.004L451.327 194.404C448.776 192.835 445.796 192 442.749 192L352.942 192C347.706 192 342.815 194.46 339.905 198.559L163.646 446.757C161.921 449.187 161 452.043 161 454.966L161 568.878ZM412.384 797.258H431.755C434.802 797.258 437.782 796.422 440.333 794.854L817.051 563.151C821.485 560.424 824.158 555.774 824.158 550.788V548.142C823.767 548.249 823.369 548.342 822.965 548.422L424.869 626.511C417.596 627.937 412.384 633.973 412.384 640.967L412.384 797.258ZM824.158 475.702V473.056C824.158 468.069 821.485 463.42 817.052 460.693L440.333 228.99C437.782 227.421 434.802 226.586 431.755 226.586H412.384V382.876C412.384 389.871 417.596 395.906 424.869 397.333L822.965 475.422C823.369 475.501 823.767 475.595 824.158 475.702ZM375.596 226.586H372.66C367.423 226.586 362.532 229.047 359.622 233.145L200.488 457.229C198.763 459.659 197.842 462.515 197.842 465.438V477.762C198.695 477.151 199.622 476.617 200.615 476.174L366.635 402.007C372.108 399.562 375.596 394.369 375.596 388.665L375.596 226.586ZM512.497 452.039C511.369 450.284 509.518 449.05 507.386 448.632L401.466 427.855C398.118 427.198 394.634 427.59 391.544 428.97L220.792 505.251C214.818 507.92 214.818 515.924 220.792 518.593L391.544 594.873C394.634 596.254 398.118 596.645 401.466 595.989L571.348 562.665C576.643 561.627 579.258 555.973 576.459 551.616L512.497 452.039Z" fill="white"/>
</svg>
