<svg width="1200" height="856" viewBox="0 0 1200 856" fill="none" xmlns="http://www.w3.org/2000/svg">
<g clip-path="url(#clip0_2101_404)">
<path d="M1014.78 854.567H1035.38C1035.76 854.566 1036.13 854.475 1036.47 854.301C1036.8 854.127 1037.09 853.877 1037.3 853.57C1037.51 853.264 1037.65 852.911 1037.69 852.543C1037.73 852.174 1037.69 851.801 1037.55 851.455L992.798 738.399C992.663 738.064 992.449 737.765 992.174 737.526C991.899 737.288 991.57 737.116 991.215 737.026C991.022 736.991 990.825 736.991 990.633 737.026H970.003L969.913 737.028L967.21 737.028C966.74 737.03 966.283 737.17 965.897 737.432C965.51 737.693 965.213 738.063 965.044 738.493L920.293 851.457C920.157 851.803 920.109 852.176 920.152 852.545C920.196 852.914 920.33 853.266 920.543 853.573C920.756 853.879 921.042 854.13 921.376 854.303C921.709 854.477 922.081 854.568 922.458 854.569H943.064C943.531 854.57 943.986 854.433 944.372 854.175C944.758 853.918 945.057 853.553 945.23 853.127L978.921 768.105L1012.59 853.125C1012.76 853.555 1013.07 853.922 1013.46 854.18C1013.85 854.437 1014.31 854.572 1014.78 854.567Z" fill="#595959"/>
<path d="M816.953 757.319H783.131C781.842 757.319 780.798 756.309 780.798 755.062V739.258C780.798 738.011 781.842 737 783.131 737H876.439C877.728 737 878.772 738.011 878.772 739.258V755.062C878.772 756.309 877.728 757.319 876.439 757.319H842.613V850.134C842.613 850.733 842.367 851.307 841.93 851.731C841.492 852.154 840.899 852.392 840.28 852.392H819.286C818.667 852.392 818.074 852.154 817.636 851.731C817.199 851.307 816.953 850.733 816.953 850.134V757.319Z" fill="#595959"/>
<path d="M656.877 785.492V757.723H716.354C716.965 757.723 717.55 757.481 717.981 757.049C718.413 756.617 718.655 756.031 718.655 755.421V739.303C718.655 738.692 718.413 738.106 717.981 737.674C717.55 737.243 716.965 737 716.354 737H633.868C633.258 737 632.672 737.243 632.241 737.674C631.809 738.106 631.567 738.692 631.567 739.303V852.267C631.567 852.877 631.809 853.463 632.241 853.895C632.672 854.327 633.258 854.569 633.868 854.569H716.354C716.965 854.569 717.55 854.327 717.981 853.895C718.413 853.463 718.655 852.877 718.655 852.267V836.149C718.655 835.538 718.413 834.952 717.981 834.521C717.55 834.089 716.965 833.846 716.354 833.846H656.877V806.215H709.797C710.407 806.215 710.992 805.973 711.424 805.541C711.855 805.109 712.098 804.523 712.098 803.913V787.795C712.098 787.184 711.855 786.598 711.424 786.167C710.992 785.735 710.407 785.492 709.797 785.492H656.877Z" fill="#595959"/>
<path d="M494.672 737H473.777C472.495 737 471.456 738.022 471.456 739.283V852.284C471.456 853.545 472.495 854.567 473.777 854.567H494.672C495.954 854.567 496.993 853.545 496.993 852.284L496.994 825.114L514.147 804.743L544.495 853.471C544.701 853.805 544.991 854.08 545.336 854.272C545.682 854.464 546.071 854.566 546.468 854.567H567.015C567.432 854.584 567.847 854.489 568.214 854.294C568.582 854.098 568.889 853.808 569.103 853.455C569.317 853.102 569.43 852.699 569.43 852.288C569.43 851.876 569.318 851.473 569.104 851.12L529.84 786.108L567.943 740.86C568.219 740.525 568.394 740.119 568.445 739.69C568.497 739.261 568.424 738.826 568.234 738.436C568.044 738.046 567.746 737.718 567.374 737.488C567.002 737.258 566.571 737.137 566.132 737.138H546.63C546.289 737.138 545.952 737.211 545.643 737.353C545.334 737.495 545.061 737.703 544.842 737.96L496.993 794.786V739.283C496.993 738.022 495.954 737 494.672 737Z" fill="#595959"/>
<path d="M361.852 737.001C362.241 736.991 362.63 737.055 362.996 737.186C363.414 737.326 363.796 737.554 364.115 737.854C364.433 738.155 364.68 738.521 364.838 738.926L409.086 850.38C409.277 850.844 409.35 851.347 409.296 851.844C409.243 852.341 409.065 852.818 408.779 853.233C408.493 853.647 408.108 853.985 407.657 854.218C407.206 854.452 406.703 854.572 406.194 854.569H387.184C386.56 854.574 385.949 854.393 385.433 854.049C384.916 853.706 384.518 853.217 384.291 852.646L350.727 768.088L316.998 853.125C316.825 853.551 316.526 853.916 316.139 854.173C315.753 854.43 315.296 854.568 314.829 854.567H294.093C293.713 854.57 293.338 854.481 293.001 854.309C292.663 854.137 292.374 853.887 292.158 853.58C291.942 853.273 291.805 852.919 291.76 852.548C291.716 852.178 291.764 851.802 291.901 851.454L336.754 738.466C336.924 738.036 337.221 737.666 337.608 737.404C337.995 737.143 338.454 737.002 338.924 737.001H361.852Z" fill="#595959"/>
<path d="M250.379 739.258V755.062C250.379 755.661 250.133 756.235 249.696 756.658C249.258 757.082 248.665 757.319 248.046 757.319H214.222V850.134C214.222 850.733 213.976 851.307 213.539 851.731C213.101 852.154 212.508 852.392 211.889 852.392H190.895C190.276 852.392 189.683 852.154 189.245 851.731C188.808 851.307 188.562 850.733 188.562 850.134V757.319H154.738C154.119 757.319 153.526 757.082 153.088 756.658C152.651 756.235 152.405 755.661 152.405 755.062V739.258C152.405 738.659 152.651 738.085 153.088 737.661C153.526 737.238 154.119 737 154.738 737H248.046C248.665 737 249.258 737.238 249.696 737.661C250.133 738.085 250.379 738.659 250.379 739.258Z" fill="#595959"/>
<path d="M97.9744 819.03C97.9744 828.456 94.1462 837.495 87.3319 844.16C80.5177 850.825 71.2757 854.569 61.6389 854.569H2.34725C1.72471 854.569 1.12768 854.327 0.687484 853.897C0.247291 853.466 0 852.882 0 852.273V834.664C0 834.056 0.247291 833.472 0.687484 833.041C1.12768 832.611 1.72471 832.369 2.34725 832.369H58.3058C61.9102 832.369 65.367 830.968 67.9158 828.475C70.4645 825.982 71.8964 822.601 71.8964 819.076C71.8964 817.331 71.5447 815.604 70.8614 813.992C70.1781 812.381 69.1767 810.917 67.9144 809.684C66.6521 808.452 65.1537 807.475 63.5049 806.809C61.8561 806.144 60.0894 805.803 58.3058 805.806H32.8616C24.1461 805.806 15.7877 802.42 9.62493 796.392C3.4622 790.364 0 782.189 0 773.664V769.142C0 760.617 3.4622 752.442 9.62493 746.414C15.7877 740.386 24.1461 737 32.8616 737H87.623C88.2455 737 88.8426 737.242 89.2828 737.672C89.7229 738.103 89.9702 738.687 89.9702 739.296V756.951C89.9702 757.56 89.7229 758.144 89.2828 758.574C88.8426 759.005 88.2455 759.247 87.623 759.247H37.7908C34.6781 759.247 31.693 760.456 29.492 762.609C27.291 764.761 26.0545 767.681 26.0545 770.726V772.034C26.0545 775.079 27.291 777.999 29.492 780.151C31.693 782.304 34.6781 783.513 37.7908 783.513H61.6389C66.4094 783.51 71.1338 784.427 75.5421 786.21C79.9504 787.994 83.9561 790.61 87.3305 793.908C90.7049 797.206 93.3817 801.122 95.208 805.433C97.0344 809.744 97.9744 814.364 97.9744 819.03Z" fill="#595959"/>
<path fill-rule="evenodd" clip-rule="evenodd" d="M1184.11 791.373C1187.88 786.198 1190.1 780.126 1190.53 773.818C1190.97 767.503 1189.59 761.195 1186.56 755.583C1183.52 749.97 1178.95 745.269 1173.33 741.992C1167.71 738.715 1161.26 736.988 1154.69 737H1102.2C1101.58 737 1100.98 737.239 1100.54 737.664C1100.1 738.089 1099.85 738.665 1099.85 739.266V852.303C1099.85 852.904 1100.1 853.481 1100.54 853.905C1100.98 854.331 1101.58 854.569 1102.2 854.569H1165.58C1173.14 854.277 1180.41 851.689 1186.35 847.175C1192.29 842.662 1196.6 836.454 1198.65 829.44C1200.71 822.426 1200.41 814.966 1197.79 808.127C1195.18 801.292 1190.39 795.428 1184.11 791.373ZM1136.94 757.9C1132.53 757.943 1128.36 757.985 1126.03 757.985V785.836H1152.95C1156.65 786.07 1160.32 785.096 1163.37 783.071C1164.93 781.943 1166.25 780.527 1167.24 778.904C1168.23 777.282 1168.87 775.486 1169.14 773.621C1169.45 771.093 1169.04 768.529 1167.94 766.211C1166.85 763.893 1165.11 761.91 1162.92 760.478C1160.03 758.698 1156.66 757.776 1153.23 757.826C1151.32 757.757 1143.84 757.831 1136.94 757.9ZM1135.74 834.324C1143.77 834.408 1157.94 834.557 1162.08 833.902H1162.17C1165.65 833.403 1168.83 831.76 1171.19 829.252C1173.55 826.744 1174.94 823.526 1175.11 820.146C1175.09 818.209 1174.65 816.297 1173.84 814.525C1173.03 812.753 1171.85 811.158 1170.38 809.837C1168.91 808.515 1167.17 807.494 1165.28 806.836C1163.39 806.177 1161.38 805.895 1159.37 806.005C1155.55 806.081 1151.71 806.055 1147.87 806.03C1145.95 806.018 1144.02 806.005 1142.1 806.005H1125.63V834.287H1131.16C1132.16 834.287 1133.76 834.304 1135.74 834.324Z" fill="#595959"/>
<path fill-rule="evenodd" clip-rule="evenodd" d="M292 323.038C292 325.543 292.789 327.992 294.268 330.074L445.347 542.815C447.842 546.328 452.034 548.437 456.522 548.437H533.5C536.111 548.437 538.665 547.721 540.852 546.377L885.909 334.148C889.709 331.811 892 327.825 892 323.551V224.886C892 220.612 889.709 216.627 885.909 214.289L540.852 2.0606C538.665 0.716014 536.111 -1.14764e-07 533.5 0L456.522 3.3832e-06C452.034 3.58046e-06 447.841 2.10898 445.347 5.62199L294.268 218.364C292.789 220.446 292 222.894 292 225.399L292 323.038ZM507.472 518.792H524.076C526.687 518.792 529.242 518.076 531.428 516.732L854.33 318.129C858.13 315.792 860.421 311.807 860.421 307.533V305.264C860.086 305.356 859.745 305.436 859.398 305.504L518.173 372.438C511.94 373.661 507.472 378.834 507.472 384.829L507.472 518.792ZM860.421 243.173V240.905C860.421 236.631 858.13 232.645 854.33 230.308L531.428 31.7058C529.242 30.3612 526.687 29.6452 524.076 29.6452H507.472V163.608C507.472 169.604 511.94 174.777 518.173 176L859.398 242.933C859.745 243.001 860.086 243.081 860.421 243.173ZM475.939 29.6452H473.423C468.934 29.6452 464.742 31.7543 462.247 35.2673L325.847 227.339C324.368 229.422 323.579 231.87 323.579 234.375V244.939C324.31 244.415 325.105 243.957 325.956 243.577L468.258 180.006C472.949 177.91 475.939 173.459 475.939 168.57L475.939 29.6452ZM593.283 222.891C592.317 221.387 590.73 220.329 588.902 219.97L498.114 202.161C495.244 201.598 492.258 201.934 489.609 203.117L343.25 268.501C338.13 270.788 338.13 277.649 343.25 279.936L489.609 345.32C492.258 346.503 495.244 346.839 498.114 346.276L643.727 317.713C648.265 316.823 650.507 311.977 648.108 308.242L593.283 222.891Z" fill="#595959"/>
</g>
<defs>
<clipPath id="clip0_2101_404">
<rect width="1200" height="855" fill="white" transform="translate(0 0.5)"/>
</clipPath>
</defs>
</svg>
